<?xml version="1.0" standalone="no"?>
<!DOCTYPE svg PUBLIC "-//W3C//DTD SVG 20010904//EN"
 "http://www.w3.org/TR/2001/REC-SVG-20010904/DTD/svg10.dtd">
<svg version="1.0" xmlns="http://www.w3.org/2000/svg"
 width="2500.000000pt" height="2500.000000pt" viewBox="0 0 2500.000000 2500.000000"
 preserveAspectRatio="xMidYMid meet">

<g transform="translate(0.000000,2500.000000) scale(0.100000,-0.100000)"
fill="#000000" stroke="none">
<path d="M17940 21280 c0 -5 -18 -14 -39 -20 -45 -12 -129 -74 -158 -117 -43
-62 -61 -112 -123 -348 -12 -44 -28 -102 -36 -130 -7 -27 -23 -86 -34 -130
-12 -44 -27 -102 -35 -130 -8 -27 -17 -61 -20 -75 -3 -14 -12 -47 -20 -75 -8
-27 -23 -86 -35 -130 -11 -44 -27 -102 -35 -130 -7 -27 -24 -88 -36 -135 -12
-47 -28 -107 -36 -133 -36 -116 -32 -264 9 -342 29 -54 96 -121 149 -149 71
-36 184 -51 249 -32 157 47 236 145 294 366 14 52 32 122 41 155 46 169 58
214 66 253 5 23 12 50 17 60 5 9 12 35 16 57 4 22 13 58 20 80 8 22 23 78 35
125 12 47 28 108 36 135 33 116 48 172 55 205 5 19 20 80 34 135 46 178 29
284 -63 387 -31 35 -72 67 -106 83 -30 15 -55 31 -55 36 0 5 -43 9 -95 9 -54
0 -95 -4 -95 -10z"/>
<path d="M13399 20486 c-3 -3 -52 -10 -110 -16 -98 -10 -211 -39 -233 -61 -6
-5 -16 -9 -24 -9 -29 0 -131 -57 -225 -126 -102 -75 -159 -138 -357 -389 -153
-195 -192 -245 -275 -350 -44 -55 -102 -129 -130 -165 -28 -36 -85 -108 -127
-160 -41 -52 -313 -399 -603 -770 -291 -371 -601 -767 -689 -879 -157 -199
-255 -324 -346 -441 -52 -67 -231 -293 -335 -425 -40 -49 -334 -425 -655 -835
-321 -410 -631 -805 -689 -879 -228 -289 -257 -326 -296 -377 -22 -28 -56 -72
-76 -96 -19 -23 -108 -135 -196 -248 -89 -113 -172 -215 -185 -226 -12 -12
-50 -36 -83 -54 -64 -35 -1359 -784 -1385 -800 -8 -6 -24 -14 -35 -20 -11 -5
-38 -21 -60 -35 -22 -13 -53 -31 -70 -40 -16 -8 -37 -19 -45 -25 -8 -5 -280
-163 -605 -350 -324 -187 -597 -345 -605 -350 -8 -6 -28 -17 -45 -25 -36 -18
-35 -18 -198 -122 -354 -228 -655 -548 -837 -888 -24 -44 -46 -84 -50 -90 -4
-5 -29 -59 -55 -120 -26 -60 -53 -124 -61 -142 -8 -17 -14 -38 -14 -47 0 -8
-7 -30 -14 -48 -34 -77 -90 -321 -101 -440 -4 -38 -11 -68 -16 -68 -5 0 -9
-116 -9 -280 0 -166 4 -280 9 -280 5 0 13 -26 16 -57 10 -87 43 -250 66 -323
39 -126 63 -195 76 -220 7 -14 13 -31 13 -39 0 -25 140 -300 204 -401 206
-326 520 -632 836 -817 110 -64 293 -157 332 -168 13 -4 52 -18 88 -33 122
-48 313 -97 500 -128 161 -27 588 -27 735 -1 169 30 285 59 420 103 117 39
131 42 147 28 16 -15 82 -126 149 -249 17 -33 37 -67 43 -75 11 -15 18 -27 64
-109 14 -25 195 -338 402 -696 207 -357 388 -670 402 -695 14 -25 35 -61 46
-80 12 -19 27 -46 35 -60 193 -347 672 -1159 736 -1249 161 -226 402 -416 636
-501 33 -12 75 -28 92 -35 18 -8 79 -25 135 -37 138 -30 492 -34 573 -6 28 9
75 21 106 27 30 5 120 38 200 73 380 168 646 468 790 893 51 149 76 505 45
629 -8 34 -25 102 -36 153 -12 55 -40 135 -70 197 -28 58 -50 108 -50 111 0 4
-49 92 -110 196 -60 105 -110 193 -110 196 0 4 -6 14 -14 22 -7 9 -33 52 -56
96 -23 44 -49 87 -56 96 -8 8 -14 18 -14 22 0 3 -162 286 -361 628 -198 342
-359 628 -357 636 2 8 208 133 458 278 491 284 547 324 596 421 26 52 29 67
29 153 0 80 -4 105 -25 151 -13 30 -122 224 -242 431 -120 207 -218 384 -218
393 0 8 10 18 23 20 21 4 102 20 257 52 92 18 207 40 280 54 84 15 208 40 280
56 36 7 103 21 150 30 134 25 217 40 330 63 58 11 128 25 155 30 28 6 84 17
125 25 41 9 122 25 180 36 210 41 267 52 355 70 50 10 106 21 125 24 19 3 69
12 110 20 118 24 216 44 330 66 172 33 260 51 355 70 158 32 208 42 280 55 39
7 120 23 180 35 61 12 142 28 180 35 39 7 93 18 120 23 54 12 212 43 340 68
44 9 121 24 170 34 50 10 106 21 125 24 19 3 69 12 110 20 155 32 215 44 510
101 78 15 234 46 355 70 270 54 366 72 468 90 48 9 99 20 113 25 14 6 37 10
50 10 14 0 64 9 112 19 85 19 133 29 352 71 58 11 137 27 175 35 39 8 132 24
208 36 160 23 242 46 347 97 96 47 134 73 244 169 85 74 201 218 240 297 117
240 155 510 101 731 -42 176 -55 202 -284 598 -89 153 -161 281 -161 284 0 4
-6 14 -14 22 -7 9 -33 52 -56 96 -23 44 -49 87 -56 96 -8 8 -14 18 -14 22 0 3
-162 285 -360 626 -198 342 -360 624 -360 627 0 3 69 110 153 237 681 1029
628 944 652 1037 30 115 9 180 -137 431 -52 90 -106 184 -120 209 -14 25 -35
61 -46 80 -12 19 -27 46 -35 60 -147 263 -405 701 -444 752 -43 56 -88 91
-153 117 -54 22 -221 24 -485 7 -132 -9 -316 -21 -410 -26 -93 -5 -244 -14
-335 -20 -91 -6 -196 -10 -235 -8 l-70 3 -78 135 c-43 74 -91 158 -106 185
-16 28 -38 66 -49 85 -12 19 -27 46 -35 60 -44 80 -102 180 -412 715 -188 325
-353 610 -367 635 -14 25 -35 61 -46 80 -12 19 -27 46 -35 60 -176 317 -249
429 -333 515 -84 86 -238 199 -314 230 -36 14 -78 32 -95 39 -88 40 -115 47
-221 61 -115 15 -187 19 -195 11z m136 -730 c66 -17 122 -53 172 -110 31 -35
331 -539 419 -702 8 -16 24 -45 36 -64 11 -19 32 -55 46 -80 14 -25 195 -337
402 -695 207 -357 379 -657 383 -665 4 -8 17 -31 29 -50 11 -19 34 -60 51 -90
16 -30 36 -62 43 -71 8 -8 14 -18 14 -22 0 -3 170 -300 379 -659 208 -359 395
-684 416 -723 21 -38 44 -77 51 -86 8 -8 14 -18 14 -21 0 -4 177 -311 393
-685 216 -373 396 -685 400 -693 4 -8 17 -31 29 -50 11 -19 34 -60 51 -90 16
-30 36 -62 43 -71 8 -8 14 -18 14 -22 0 -3 162 -285 360 -627 198 -342 360
-624 360 -627 0 -4 6 -14 14 -22 7 -9 27 -41 43 -71 17 -30 40 -71 51 -90 12
-19 25 -42 29 -50 4 -8 37 -67 73 -130 100 -172 110 -199 110 -295 0 -62 -5
-94 -21 -131 -45 -102 -130 -178 -233 -208 -54 -16 -197 -38 -255 -40 l-35 -1
-362 625 c-200 344 -377 652 -395 685 -17 33 -38 67 -45 76 -8 8 -14 18 -14
22 0 3 -161 284 -358 624 -326 561 -385 664 -429 743 -8 14 -23 41 -35 60 -11
19 -32 55 -46 80 -14 25 -195 338 -402 695 -207 358 -379 657 -383 665 -4 8
-17 31 -29 50 -11 19 -34 60 -51 90 -16 30 -36 62 -43 71 -8 8 -14 18 -14 22
0 3 -162 285 -360 627 -198 342 -360 624 -360 627 0 4 -6 14 -14 22 -7 9 -27
41 -43 71 -50 92 -71 128 -441 767 -197 340 -361 625 -365 633 -4 8 -17 31
-29 50 -11 19 -34 60 -51 90 -16 30 -35 62 -41 70 -6 8 -22 35 -35 60 -13 25
-30 52 -37 61 -8 8 -14 24 -14 35 0 28 177 244 227 277 82 54 187 70 288 43z
m-891 -1111 c47 -82 91 -157 96 -165 6 -8 17 -28 25 -45 9 -16 25 -46 37 -65
11 -19 32 -55 46 -80 14 -25 179 -310 367 -635 307 -530 363 -628 412 -715 8
-14 23 -41 35 -60 11 -19 32 -54 45 -78 13 -23 186 -322 384 -663 197 -341
359 -623 359 -626 0 -4 6 -14 14 -22 7 -9 28 -43 46 -76 46 -84 58 -105 82
-145 11 -19 32 -55 46 -80 14 -25 179 -310 367 -635 309 -534 367 -634 412
-715 8 -14 23 -41 35 -60 11 -19 32 -55 46 -80 14 -25 204 -353 422 -730 218
-377 412 -712 430 -745 18 -33 36 -64 40 -70 5 -5 22 -35 38 -65 17 -30 78
-136 135 -235 69 -118 102 -184 96 -191 -5 -6 -26 -14 -47 -17 -20 -3 -71 -13
-112 -21 -41 -9 -111 -23 -155 -31 -44 -9 -111 -22 -150 -30 -38 -8 -108 -22
-155 -31 -47 -9 -116 -23 -155 -30 -38 -8 -107 -20 -153 -28 -45 -8 -86 -17
-91 -20 -4 -3 -39 -10 -77 -16 -38 -6 -98 -17 -134 -25 -62 -13 -93 -19 -330
-65 -111 -21 -206 -40 -330 -66 -41 -8 -100 -19 -130 -24 -30 -6 -89 -17 -130
-25 -41 -9 -109 -22 -150 -30 -41 -8 -109 -21 -150 -30 -41 -8 -100 -19 -130
-25 -30 -5 -89 -16 -130 -24 -124 -26 -219 -45 -330 -66 -172 -33 -260 -51
-355 -70 -156 -31 -208 -41 -280 -55 -92 -17 -212 -41 -305 -59 -41 -9 -109
-22 -150 -30 -41 -8 -122 -24 -180 -36 -58 -11 -139 -27 -180 -35 -295 -57
-355 -69 -510 -101 -41 -8 -91 -17 -110 -20 -19 -3 -75 -14 -125 -24 -49 -10
-126 -25 -170 -34 -44 -8 -127 -25 -185 -36 -58 -12 -139 -28 -180 -36 -41 -8
-109 -21 -150 -30 -182 -36 -238 -47 -276 -51 l-41 -5 -271 469 c-148 257
-280 484 -291 503 -11 19 -25 44 -31 55 -5 11 -21 38 -35 60 -13 22 -31 54
-40 70 -8 17 -19 37 -25 45 -10 15 -705 1216 -752 1300 -14 25 -35 61 -47 80
-11 19 -24 42 -28 50 -4 8 -87 153 -185 323 -98 169 -178 316 -178 328 0 11
37 68 83 127 131 169 1201 1533 1334 1701 76 96 137 173 713 907 228 291 603
770 834 1064 230 294 442 564 471 600 180 227 258 326 390 495 81 105 153 193
159 197 16 11 27 -3 120 -167z m4246 -1638 c30 -23 491 -831 487 -852 -4 -23
-392 -614 -415 -632 -21 -17 -31 -16 -39 5 -4 9 -142 251 -308 537 -166 286
-304 527 -308 535 -4 8 -17 31 -28 50 -12 19 -33 55 -47 80 -13 25 -47 82 -74
128 -27 46 -48 89 -45 96 7 17 63 23 337 36 124 7 261 15 305 19 115 12 118
12 135 -2z m-8918 -3764 c14 -17 465 -793 565 -973 8 -14 23 -41 35 -60 11
-19 34 -60 51 -90 16 -30 36 -62 43 -71 8 -8 14 -18 14 -22 0 -3 170 -300 378
-659 209 -359 396 -684 417 -723 21 -38 44 -77 51 -86 8 -8 14 -18 14 -22 0
-3 45 -83 100 -178 55 -94 100 -179 100 -188 0 -11 -138 -96 -404 -250 -222
-128 -413 -238 -424 -245 -10 -6 -39 -22 -63 -36 -24 -13 -53 -30 -64 -37 -11
-7 -33 -20 -50 -28 -16 -9 -39 -22 -50 -28 -11 -7 -54 -31 -95 -55 -41 -23
-82 -47 -90 -52 -47 -30 -1192 -690 -1197 -690 -4 0 -14 -6 -22 -14 -9 -7 -43
-28 -76 -46 -69 -38 -94 -52 -150 -84 -113 -65 -247 -134 -300 -154 -33 -13
-81 -32 -107 -43 -26 -10 -57 -19 -69 -19 -12 0 -45 -7 -73 -15 -161 -46 -232
-55 -423 -55 -120 0 -212 5 -253 14 -36 8 -90 17 -120 20 -61 8 -178 41 -219
62 -14 8 -30 14 -36 14 -28 0 -211 83 -271 122 -38 25 -96 60 -128 78 -67 38
-288 238 -372 337 -79 94 -148 200 -212 328 -134 267 -194 517 -193 810 0 88
5 187 11 220 6 33 15 87 21 120 34 203 138 453 272 655 118 179 305 365 493
492 79 53 529 319 594 352 8 4 32 17 52 29 20 12 60 35 90 51 29 15 60 34 69
42 8 8 18 14 22 14 3 0 257 145 564 323 307 178 565 326 573 330 8 4 31 17 50
29 19 11 60 34 90 51 30 16 62 36 71 43 8 8 18 14 22 14 6 0 619 354 652 376
25 18 29 18 47 -3z m2233 -3858 c44 -77 92 -160 105 -185 13 -25 30 -52 36
-60 6 -8 25 -40 41 -70 17 -30 40 -72 53 -93 12 -20 20 -43 17 -51 -7 -17
-574 -346 -597 -346 -25 0 -352 563 -348 597 2 18 19 33 68 60 96 53 111 62
155 89 22 13 49 29 60 34 11 6 37 20 57 33 21 12 61 35 89 50 28 16 72 42 98
58 25 16 55 28 65 27 14 -2 45 -47 101 -143z m-1329 -573 c10 -7 58 -89 172
-292 14 -25 195 -337 402 -695 207 -357 379 -657 383 -665 4 -8 17 -31 29 -50
11 -19 34 -60 51 -90 16 -30 36 -62 43 -71 8 -8 14 -18 14 -22 0 -3 152 -268
338 -589 186 -321 354 -617 374 -658 54 -112 81 -235 75 -340 -15 -232 -119
-424 -302 -555 -316 -225 -754 -157 -985 155 -40 54 -231 371 -253 420 -4 8
-18 33 -32 55 -14 22 -28 47 -32 55 -8 18 -719 1249 -733 1270 -6 8 -17 29
-25 45 -9 17 -27 48 -40 70 -14 22 -30 49 -35 60 -6 11 -14 27 -20 35 -5 8
-156 269 -336 580 -245 425 -324 568 -317 580 9 13 335 210 408 246 17 8 48
26 70 39 22 14 49 30 60 35 11 6 36 20 55 32 19 11 60 34 90 51 30 16 62 35
70 42 8 7 22 14 30 17 8 4 107 60 220 126 113 67 207 121 210 121 3 1 10 -3
16 -7z"/>
<path d="M8200 10901 c-114 -39 -185 -98 -232 -191 -28 -57 -32 -74 -32 -145
0 -102 24 -169 87 -241 59 -66 129 -102 221 -114 158 -20 294 58 365 210 36
75 42 165 16 227 -8 19 -15 43 -15 52 0 9 -22 43 -50 77 -70 85 -142 122 -253
129 -45 2 -93 1 -107 -4z"/>
<path d="M6935 10174 c-22 -8 -49 -18 -60 -21 -11 -4 -157 -86 -325 -183 -360
-208 -399 -225 -508 -217 -127 9 -172 38 -317 205 -71 82 -136 119 -234 135
-58 9 -79 7 -132 -7 -74 -21 -99 -35 -157 -90 -63 -59 -98 -134 -106 -226 -8
-98 18 -174 101 -290 151 -212 369 -357 633 -422 107 -27 369 -29 447 -5 27 9
65 18 86 22 35 6 109 36 217 88 116 56 647 372 694 413 33 28 66 70 85 106 28
53 32 69 33 151 1 79 -2 100 -24 147 -36 75 -88 133 -156 171 -50 28 -68 32
-147 36 -66 2 -101 -1 -130 -13z"/>
<path d="M21455 19753 c-47 -12 -127 -52 -238 -115 -66 -37 -120 -68 -122 -68
-2 0 -43 -23 -92 -51 -48 -28 -97 -55 -108 -60 -11 -5 -27 -13 -35 -19 -26
-16 -211 -120 -215 -120 -4 0 -189 -104 -215 -120 -8 -6 -24 -14 -35 -19 -11
-5 -60 -32 -108 -60 -49 -28 -90 -51 -92 -51 -2 0 -45 -24 -97 -54 -51 -29
-122 -69 -158 -88 -36 -20 -139 -77 -230 -128 -91 -51 -199 -111 -240 -133
-174 -93 -252 -187 -272 -329 -12 -92 13 -180 77 -260 67 -83 136 -118 245
-125 105 -6 170 13 308 93 51 30 95 54 97 54 2 0 43 23 92 51 48 28 97 55 108
60 11 5 38 20 60 32 103 59 397 223 455 255 36 19 107 59 158 88 52 30 95 54
97 54 2 0 46 25 99 55 52 30 97 55 100 55 2 0 59 32 126 70 67 39 123 70 125
70 2 0 57 30 122 68 65 37 145 81 177 97 96 50 177 123 211 191 16 32 33 61
37 62 12 5 10 192 -2 192 -5 0 -14 18 -20 39 -16 61 -94 148 -164 183 -51 26
-75 31 -146 34 -47 2 -94 0 -105 -3z"/>
<path d="M19573 16372 c-143 -51 -233 -169 -241 -318 -5 -97 24 -177 91 -251
66 -72 136 -105 317 -152 47 -12 108 -28 135 -36 28 -8 61 -17 75 -20 14 -3
48 -12 75 -20 28 -8 86 -23 130 -35 44 -11 103 -27 130 -35 55 -16 155 -42
285 -76 47 -11 96 -26 109 -31 14 -5 43 -13 65 -18 23 -4 84 -19 137 -33 148
-40 212 -44 291 -17 111 37 202 130 235 239 15 51 17 150 4 183 -5 13 -12 34
-15 48 -3 14 -27 52 -54 85 -38 47 -65 68 -123 97 -41 20 -94 41 -119 47 -43
11 -88 23 -265 71 -44 12 -129 34 -190 50 -60 16 -123 33 -140 38 -16 5 -68
19 -115 31 -47 12 -107 28 -135 36 -54 15 -152 41 -285 76 -47 12 -101 27
-120 34 -19 7 -78 16 -130 19 -78 5 -104 3 -147 -12z"/>
</g>
</svg>
